<svg xmlns="http://www.w3.org/2000/svg" viewBox="0 0 960 540" role="img" aria-labelledby="title desc">
  <title id="title">Quiet study zone illustration</title>
  <desc id="desc">A learner studies at a desk with a book and laptop. A large speech bubble with sound waves is crossed out, suggesting that the area should be quiet.</desc>
  <rect width="960" height="540" fill="#101827"/>
  <rect x="92" y="76" width="776" height="388" rx="30" fill="#182338" stroke="#334155" stroke-width="4"/>
  <rect x="146" y="130" width="328" height="86" rx="18" fill="#0e7490"/>
  <text x="310" y="183" text-anchor="middle" font-family="Arial, sans-serif" font-size="34" font-weight="700" fill="#ecfeff">QUIET STUDY ZONE</text>
  <rect x="204" y="344" width="552" height="28" rx="14" fill="#64748b"/>
  <rect x="271" y="370" width="24" height="56" rx="10" fill="#475569"/>
  <rect x="669" y="370" width="24" height="56" rx="10" fill="#475569"/>
  <circle cx="470" cy="265" r="46" fill="#f6cba4"/>
  <path d="M426 256c0-47 88-56 88 0v13h-88z" fill="#312e81"/>
  <path d="M432 307h76l28 70H404z" fill="#2563eb"/>
  <rect x="390" y="299" width="160" height="18" rx="9" fill="#f6cba4"/>
  <rect x="508" y="281" width="116" height="74" rx="8" fill="#94a3b8"/>
  <rect x="518" y="291" width="96" height="52" rx="4" fill="#e0f2fe"/>
  <rect x="272" y="286" width="88" height="68" rx="5" fill="#fef3c7"/>
  <path d="M316 286v68" stroke="#d97706" stroke-width="4"/>
  <path d="M608 132c41-29 110-18 134 29 24 47-9 100-61 101-15 0-29-5-41-13l-55 14 18-51c-28-26-27-57 5-80z" fill="#f8fafc" stroke="#94a3b8" stroke-width="5"/>
  <path d="M632 185h23m9-15h26m-58 30h23m9-15h26" stroke="#0f172a" stroke-width="8" stroke-linecap="round"/>
  <path d="M610 140l118 118" stroke="#ef4444" stroke-width="15" stroke-linecap="round"/>
</svg>
