<svg width="240" height="48" viewBox="0 0 240 48" fill="none" xmlns="http://www.w3.org/2000/svg">
  <defs>
    <linearGradient id="grad_primary" x1="0" y1="0" x2="32" y2="32" gradientUnits="userSpaceOnUse">
      <stop offset="0" stop-color="#818cf8"/>
      <stop offset="1" stop-color="#4338ca"/>
    </linearGradient>
    <linearGradient id="grad_accent" x1="0" y1="32" x2="32" y2="0" gradientUnits="userSpaceOnUse">
      <stop offset="0" stop-color="#2dd4bf"/>
      <stop offset="1" stop-color="#0f766e"/>
    </linearGradient>
  </defs>

  <!-- Monogram/Mark -->
  <g transform="translate(6, 6)">
    <!-- Book/Growth Abstract Icon -->
    <path d="M18 4L4 12V24L18 32L32 24V12L18 4Z" fill="url(#grad_primary)" opacity="0.15"/>
    <path d="M18 4L4 12V20L18 28L32 20V12L18 4Z" fill="url(#grad_primary)"/>
    <!-- Growth trajectory slice -->
    <path d="M18 16L4 24V28L18 36L32 28V24L18 16Z" fill="url(#grad_accent)"/>
    <path d="M4 12L18 20L32 12V16L18 24L4 16V12Z" fill="#fafafa" opacity="0.3"/>
  </g>

  <!-- Typography -->
  <text x="52" y="32" fill="#fafafa" font-weight="800" font-size="26" font-family="-apple-system, BlinkMacSystemFont, 'Segoe UI', Roboto, Helvetica, Arial, sans-serif" letter-spacing="-0.03em">
    Adult<tspan font-weight="300" fill="#a1a1aa">Edu</tspan>
  </text>
</svg>
